<svg width="65" height="64" viewBox="0 0 65 64" fill="none" xmlns="http://www.w3.org/2000/svg">
<circle cx="9.00641" cy="8.99859" r="8.01843" stroke="#5F1EB4" stroke-width="1.96034"/>
<circle cx="9.00693" cy="8.99863" r="2.81192" fill="#5F1EB4" stroke="#5F1EB4" stroke-width="1.96034"/>
<circle cx="55.0064" cy="8.99859" r="8.01843" stroke="#5F1EB4" stroke-width="1.96034"/>
<circle cx="55.0069" cy="8.99863" r="2.81192" fill="#5F1EB4" stroke="#5F1EB4" stroke-width="1.96034"/>
<circle cx="9.00641" cy="54.6702" r="8.01843" stroke="#5F1EB4" stroke-width="1.96034"/>
<circle cx="9.00693" cy="54.67" r="2.81192" fill="#5F1EB4" stroke="#5F1EB4" stroke-width="1.96034"/>
<path d="M34.8218 31.8804C35.5647 31.6611 36.2719 31.3078 36.9197 30.8388L35.6954 29.0663C34.6197 29.8521 33.3123 30.1505 32.0107 29.9191C30.7092 29.6815 29.58 28.9445 28.8312 27.8298L27.0899 29.0602C28.1656 30.6561 29.7821 31.722 31.6423 32.057C32.0523 32.1301 32.4683 32.1667 32.8784 32.1667C33.027 32.1667 33.1756 32.1606 33.3301 32.1484L26.656 33.3605C27.1731 36.3634 29.9663 38.3734 32.9022 37.8435C35.8321 37.3136 37.7934 34.4508 37.2763 31.4479L34.8218 31.8804Z" fill="#5F1EB4"/>
<path d="M31.3842 28.7862C32.2048 28.7862 32.87 28.1045 32.87 27.2635C32.87 26.4225 32.2048 25.7407 31.3842 25.7407C30.5636 25.7407 29.8984 26.4225 29.8984 27.2635C29.8984 28.1045 30.5636 28.7862 31.3842 28.7862Z" fill="#5F1EB4"/>
<circle cx="1.2694" cy="24.1371" r="1.26158" fill="#5F1EB4"/>
<circle cx="1.2694" cy="26.6603" r="1.26158" fill="#5F1EB4"/>
<circle cx="3.79259" cy="26.6603" r="1.26158" fill="#5F1EB4"/>
<circle cx="11.3631" cy="26.66" r="1.26158" fill="#5F1EB4"/>
<circle cx="11.3631" cy="29.1835" r="1.26158" fill="#5F1EB4"/>
<circle cx="13.8866" cy="29.1835" r="1.26158" fill="#5F1EB4"/>
<circle cx="13.8866" cy="31.7064" r="1.26158" fill="#5F1EB4"/>
<circle cx="16.41" cy="31.7064" r="1.26158" fill="#5F1EB4"/>
<circle cx="8.83971" cy="29.1835" r="1.26158" fill="#5F1EB4"/>
<circle cx="6.31627" cy="29.1835" r="1.26158" fill="#5F1EB4"/>
<circle cx="9.00768" cy="31.7064" r="1.26158" fill="#5F1EB4"/>
<circle cx="9.00768" cy="34.2298" r="1.26158" fill="#5F1EB4"/>
<circle cx="11.535" cy="34.2298" r="1.26158" fill="#5F1EB4"/>
<circle cx="13.8866" cy="36.6664" r="1.26158" fill="#5F1EB4"/>
<circle cx="16.41" cy="36.6664" r="1.26158" fill="#5F1EB4"/>
<circle cx="18.9335" cy="36.6664" r="1.26158" fill="#5F1EB4"/>
<circle cx="21.4608" cy="36.6664" r="1.26158" fill="#5F1EB4"/>
<circle cx="21.4608" cy="34.2298" r="1.26158" fill="#5F1EB4"/>
<circle cx="21.4608" cy="31.7064" r="1.26158" fill="#5F1EB4"/>
<circle cx="21.4608" cy="29.1835" r="1.26158" fill="#5F1EB4"/>
<circle cx="21.4608" cy="26.66" r="1.26158" fill="#5F1EB4"/>
<circle cx="18.9374" cy="24.1371" r="1.26158" fill="#5F1EB4"/>
<circle cx="13.8866" cy="24.1371" r="1.26158" fill="#5F1EB4"/>
<circle cx="16.41" cy="21.6141" r="1.26158" fill="#5F1EB4"/>
<circle cx="16.41" cy="26.66" r="1.26158" fill="#5F1EB4"/>
<circle cx="18.9374" cy="34.2298" r="1.26158" fill="#5F1EB4"/>
<circle cx="6.48424" cy="34.2298" r="1.26158" fill="#5F1EB4"/>
<circle cx="6.48424" cy="36.6664" r="1.26158" fill="#5F1EB4"/>
<circle cx="3.9608" cy="36.6664" r="1.26158" fill="#5F1EB4"/>
<circle cx="3.9608" cy="39.1898" r="1.26158" fill="#5F1EB4"/>
<circle cx="6.48424" cy="39.1898" r="1.26158" fill="#5F1EB4"/>
<circle cx="1.43736" cy="39.1898" r="1.26158" fill="#5F1EB4"/>
<circle cx="1.43736" cy="41.7128" r="1.26158" fill="#5F1EB4"/>
<circle cx="9.00768" cy="41.7128" r="1.26158" fill="#5F1EB4"/>
<circle cx="8.83971" cy="26.66" r="1.26158" fill="#5F1EB4"/>
<circle cx="6.31627" cy="24.1371" r="1.26158" fill="#5F1EB4"/>
<circle cx="6.31627" cy="21.6141" r="1.26158" fill="#5F1EB4"/>
<circle cx="3.95275" cy="21.6139" r="1.26158" fill="#5F1EB4"/>
<circle cx="38.9103" cy="1.26158" r="1.26158" transform="rotate(90 38.9103 1.26158)" fill="#5F1EB4"/>
<circle cx="36.3869" cy="1.26158" r="1.26158" transform="rotate(90 36.3869 1.26158)" fill="#5F1EB4"/>
<circle cx="36.3869" cy="11.3544" r="1.26158" transform="rotate(90 36.3869 11.3544)" fill="#5F1EB4"/>
<circle cx="33.8631" cy="11.3544" r="1.26158" transform="rotate(90 33.8631 11.3544)" fill="#5F1EB4"/>
<circle cx="31.3399" cy="13.8776" r="1.26158" transform="rotate(90 31.3399 13.8776)" fill="#5F1EB4"/>
<circle cx="31.3399" cy="16.4007" r="1.26158" transform="rotate(90 31.3399 16.4007)" fill="#5F1EB4"/>
<circle cx="33.8631" cy="8.83116" r="1.26158" transform="rotate(90 33.8631 8.83116)" fill="#5F1EB4"/>
<circle cx="33.8631" cy="6.30821" r="1.26158" transform="rotate(90 33.8631 6.30821)" fill="#5F1EB4"/>
<circle cx="31.3399" cy="8.99889" r="1.26158" transform="rotate(90 31.3399 8.99889)" fill="#5F1EB4"/>
<circle cx="28.8168" cy="8.99889" r="1.26158" transform="rotate(90 28.8168 8.99889)" fill="#5F1EB4"/>
<circle cx="28.8168" cy="11.5292" r="1.26158" transform="rotate(90 28.8168 11.5292)" fill="#5F1EB4"/>
<circle cx="26.379" cy="13.8778" r="1.26158" transform="rotate(90 26.379 13.8778)" fill="#5F1EB4"/>
<circle cx="26.379" cy="16.4007" r="1.26158" transform="rotate(90 26.379 16.4007)" fill="#5F1EB4"/>
<circle cx="26.379" cy="18.9237" r="1.26158" transform="rotate(90 26.379 18.9237)" fill="#5F1EB4"/>
<circle cx="28.8168" cy="21.4545" r="1.26158" transform="rotate(90 28.8168 21.4545)" fill="#5F1EB4"/>
<circle cx="31.3399" cy="21.4545" r="1.26158" transform="rotate(90 31.3399 21.4545)" fill="#5F1EB4"/>
<circle cx="33.8631" cy="21.4545" r="1.26158" transform="rotate(90 33.8631 21.4545)" fill="#5F1EB4"/>
<circle cx="36.3869" cy="21.4545" r="1.26158" transform="rotate(90 36.3869 21.4545)" fill="#5F1EB4"/>
<circle cx="38.9103" cy="13.8778" r="1.26158" transform="rotate(90 38.9103 13.8778)" fill="#5F1EB4"/>
<circle cx="41.4337" cy="16.4007" r="1.26158" transform="rotate(90 41.4337 16.4007)" fill="#5F1EB4"/>
<circle cx="36.3869" cy="16.4007" r="1.26158" transform="rotate(90 36.3869 16.4007)" fill="#5F1EB4"/>
<circle cx="28.8168" cy="18.9313" r="1.26158" transform="rotate(90 28.8168 18.9313)" fill="#5F1EB4"/>
<circle cx="28.8168" cy="6.47569" r="1.26158" transform="rotate(90 28.8168 6.47569)" fill="#5F1EB4"/>
<circle cx="26.379" cy="3.9525" r="1.26158" transform="rotate(90 26.379 3.9525)" fill="#5F1EB4"/>
<circle cx="23.8556" cy="3.9525" r="1.26158" transform="rotate(90 23.8556 3.9525)" fill="#5F1EB4"/>
<circle cx="23.8556" cy="6.47545" r="1.26158" transform="rotate(90 23.8556 6.47545)" fill="#5F1EB4"/>
<circle cx="23.8556" cy="1.42906" r="1.26158" transform="rotate(90 23.8556 1.42906)" fill="#5F1EB4"/>
<circle cx="21.3322" cy="1.42906" r="1.26158" transform="rotate(90 21.3322 1.42906)" fill="#5F1EB4"/>
<circle cx="21.3322" cy="8.99889" r="1.26158" transform="rotate(90 21.3322 8.99889)" fill="#5F1EB4"/>
<circle cx="36.3869" cy="8.83141" r="1.26158" transform="rotate(90 36.3869 8.83141)" fill="#5F1EB4"/>
<circle cx="38.9103" cy="6.30797" r="1.26158" transform="rotate(90 38.9103 6.30797)" fill="#5F1EB4"/>
<circle cx="41.4337" cy="6.30797" r="1.26158" transform="rotate(90 41.4337 6.30797)" fill="#5F1EB4"/>
<circle cx="41.4337" cy="3.94518" r="1.26158" transform="rotate(90 41.4337 3.94518)" fill="#5F1EB4"/>
<circle cx="1.26158" cy="1.26158" r="1.26158" transform="matrix(4.37114e-08 1 1 -4.37114e-08 46.4844 20.9277)" fill="#5F1EB4"/>
<circle cx="1.26158" cy="1.26158" r="1.26158" transform="matrix(4.37114e-08 1 1 -4.37114e-08 46.4844 28.4971)" fill="#5F1EB4"/>
<circle cx="1.26158" cy="1.26158" r="1.26158" transform="matrix(4.37114e-08 1 1 -4.37114e-08 49.0078 28.4971)" fill="#5F1EB4"/>
<circle cx="1.26158" cy="1.26158" r="1.26158" transform="matrix(4.37114e-08 1 1 -4.37114e-08 49.0078 31.02)" fill="#5F1EB4"/>
<circle cx="1.26158" cy="1.26158" r="1.26158" transform="matrix(4.37114e-08 1 1 -4.37114e-08 51.5273 31.02)" fill="#5F1EB4"/>
<circle cx="1.26158" cy="1.26158" r="1.26158" transform="matrix(4.37114e-08 1 1 -4.37114e-08 51.5273 33.5435)" fill="#5F1EB4"/>
<circle cx="1.26158" cy="1.26158" r="1.26158" transform="matrix(4.37114e-08 1 1 -4.37114e-08 49.0078 25.9741)" fill="#5F1EB4"/>
<circle cx="1.26158" cy="1.26158" r="1.26158" transform="matrix(4.37114e-08 1 1 -4.37114e-08 49.0078 23.4507)" fill="#5F1EB4"/>
<circle cx="1.26158" cy="1.26158" r="1.26158" transform="matrix(4.37114e-08 1 1 -4.37114e-08 51.5273 26.1416)" fill="#5F1EB4"/>
<circle cx="1.26158" cy="1.26158" r="1.26158" transform="matrix(4.37114e-08 1 1 -4.37114e-08 54.0508 26.1416)" fill="#5F1EB4"/>
<circle cx="1.26158" cy="1.26158" r="1.26158" transform="matrix(4.37114e-08 1 1 -4.37114e-08 54.0508 28.6719)" fill="#5F1EB4"/>
<circle cx="1.26158" cy="1.26158" r="1.26158" transform="matrix(4.37114e-08 1 1 -4.37114e-08 56.4883 31.02)" fill="#5F1EB4"/>
<circle cx="1.26158" cy="1.26158" r="1.26158" transform="matrix(4.37114e-08 1 1 -4.37114e-08 56.4883 33.5435)" fill="#5F1EB4"/>
<circle cx="1.26158" cy="1.26158" r="1.26158" transform="matrix(4.37114e-08 1 1 -4.37114e-08 56.4883 36.0664)" fill="#5F1EB4"/>
<circle cx="1.26158" cy="1.26158" r="1.26158" transform="matrix(4.37114e-08 1 1 -4.37114e-08 56.4883 38.5972)" fill="#5F1EB4"/>
<circle cx="1.26158" cy="1.26158" r="1.26158" transform="matrix(4.37114e-08 1 1 -4.37114e-08 54.0508 38.5972)" fill="#5F1EB4"/>
<circle cx="1.26158" cy="1.26158" r="1.26158" transform="matrix(4.37114e-08 1 1 -4.37114e-08 46.4844 38.5972)" fill="#5F1EB4"/>
<circle cx="1.26158" cy="1.26158" r="1.26158" transform="matrix(4.37114e-08 1 1 -4.37114e-08 43.9609 36.0737)" fill="#5F1EB4"/>
<circle cx="1.26158" cy="1.26158" r="1.26158" transform="matrix(4.37114e-08 1 1 -4.37114e-08 43.9609 31.02)" fill="#5F1EB4"/>
<circle cx="1.26158" cy="1.26158" r="1.26158" transform="matrix(4.37114e-08 1 1 -4.37114e-08 41.4375 33.5435)" fill="#5F1EB4"/>
<circle cx="1.26158" cy="1.26158" r="1.26158" transform="matrix(4.37114e-08 1 1 -4.37114e-08 46.4844 33.5435)" fill="#5F1EB4"/>
<circle cx="1.26158" cy="1.26158" r="1.26158" transform="matrix(4.37114e-08 1 1 -4.37114e-08 54.0508 36.0737)" fill="#5F1EB4"/>
<circle cx="1.26158" cy="1.26158" r="1.26158" transform="matrix(4.37114e-08 1 1 -4.37114e-08 54.0508 23.6182)" fill="#5F1EB4"/>
<circle cx="1.26158" cy="1.26158" r="1.26158" transform="matrix(4.37114e-08 1 1 -4.37114e-08 56.4883 23.6182)" fill="#5F1EB4"/>
<circle cx="1.26158" cy="1.26158" r="1.26158" transform="matrix(4.37114e-08 1 1 -4.37114e-08 59.0117 21.0952)" fill="#5F1EB4"/>
<circle cx="1.26158" cy="1.26158" r="1.26158" transform="matrix(4.37114e-08 1 1 -4.37114e-08 59.0117 23.6182)" fill="#5F1EB4"/>
<circle cx="1.26158" cy="1.26158" r="1.26158" transform="matrix(4.37114e-08 1 1 -4.37114e-08 61.5352 26.1416)" fill="#5F1EB4"/>
<circle cx="1.26158" cy="1.26158" r="1.26158" transform="matrix(4.37114e-08 1 1 -4.37114e-08 61.5352 28.6719)" fill="#5F1EB4"/>
<circle cx="1.26158" cy="1.26158" r="1.26158" transform="matrix(4.37114e-08 1 1 -4.37114e-08 46.4844 25.9741)" fill="#5F1EB4"/>
<circle cx="1.26158" cy="1.26158" r="1.26158" transform="matrix(4.37114e-08 1 1 -4.37114e-08 43.9609 23.4507)" fill="#5F1EB4"/>
<circle cx="60.2699" cy="42.2142" r="1.26158" transform="rotate(90 60.2699 42.2142)" fill="#5F1EB4"/>
<circle cx="57.7465" cy="42.2142" r="1.26158" transform="rotate(90 57.7465 42.2142)" fill="#5F1EB4"/>
<circle cx="57.7465" cy="44.7372" r="1.26158" transform="rotate(90 57.7465 44.7372)" fill="#5F1EB4"/>
<circle cx="57.7465" cy="52.307" r="1.26158" transform="rotate(90 57.7465 52.307)" fill="#5F1EB4"/>
<circle cx="55.223" cy="52.307" r="1.26158" transform="rotate(90 55.223 52.307)" fill="#5F1EB4"/>
<circle cx="55.223" cy="54.8299" r="1.26158" transform="rotate(90 55.223 54.8299)" fill="#5F1EB4"/>
<circle cx="52.6996" cy="54.8299" r="1.26158" transform="rotate(90 52.6996 54.8299)" fill="#5F1EB4"/>
<circle cx="52.6996" cy="57.3534" r="1.26158" transform="rotate(90 52.6996 57.3534)" fill="#5F1EB4"/>
<circle cx="55.223" cy="49.7836" r="1.26158" transform="rotate(90 55.223 49.7836)" fill="#5F1EB4"/>
<circle cx="55.223" cy="47.2606" r="1.26158" transform="rotate(90 55.223 47.2606)" fill="#5F1EB4"/>
<circle cx="52.6996" cy="49.951" r="1.26158" transform="rotate(90 52.6996 49.951)" fill="#5F1EB4"/>
<circle cx="50.1762" cy="49.951" r="1.26158" transform="rotate(90 50.1762 49.951)" fill="#5F1EB4"/>
<circle cx="50.1762" cy="52.4818" r="1.26158" transform="rotate(90 50.1762 52.4818)" fill="#5F1EB4"/>
<circle cx="47.7387" cy="54.8299" r="1.26158" transform="rotate(90 47.7387 54.8299)" fill="#5F1EB4"/>
<circle cx="47.7387" cy="57.3534" r="1.26158" transform="rotate(90 47.7387 57.3534)" fill="#5F1EB4"/>
<circle cx="47.7387" cy="59.8763" r="1.26158" transform="rotate(90 47.7387 59.8763)" fill="#5F1EB4"/>
<circle cx="47.7387" cy="62.4071" r="1.26158" transform="rotate(90 47.7387 62.4071)" fill="#5F1EB4"/>
<circle cx="50.1762" cy="62.4071" r="1.26158" transform="rotate(90 50.1762 62.4071)" fill="#5F1EB4"/>
<circle cx="52.6996" cy="62.4071" r="1.26158" transform="rotate(90 52.6996 62.4071)" fill="#5F1EB4"/>
<circle cx="55.223" cy="62.4071" r="1.26158" transform="rotate(90 55.223 62.4071)" fill="#5F1EB4"/>
<circle cx="57.7465" cy="62.4071" r="1.26158" transform="rotate(90 57.7465 62.4071)" fill="#5F1EB4"/>
<circle cx="60.2699" cy="59.8837" r="1.26158" transform="rotate(90 60.2699 59.8837)" fill="#5F1EB4"/>
<circle cx="60.2699" cy="54.8299" r="1.26158" transform="rotate(90 60.2699 54.8299)" fill="#5F1EB4"/>
<circle cx="62.7936" cy="57.3534" r="1.26158" transform="rotate(90 62.7936 57.3534)" fill="#5F1EB4"/>
<circle cx="57.7465" cy="57.3534" r="1.26158" transform="rotate(90 57.7465 57.3534)" fill="#5F1EB4"/>
<circle cx="50.1762" cy="59.8837" r="1.26158" transform="rotate(90 50.1762 59.8837)" fill="#5F1EB4"/>
<circle cx="50.1762" cy="47.4281" r="1.26158" transform="rotate(90 50.1762 47.4281)" fill="#5F1EB4"/>
<circle cx="47.7387" cy="47.4281" r="1.26158" transform="rotate(90 47.7387 47.4281)" fill="#5F1EB4"/>
<circle cx="47.7387" cy="44.9051" r="1.26158" transform="rotate(90 47.7387 44.9051)" fill="#5F1EB4"/>
<circle cx="45.2191" cy="44.9051" r="1.26158" transform="rotate(90 45.2191 44.9051)" fill="#5F1EB4"/>
<circle cx="45.2191" cy="47.4281" r="1.26158" transform="rotate(90 45.2191 47.4281)" fill="#5F1EB4"/>
<circle cx="45.2191" cy="42.3817" r="1.26158" transform="rotate(90 45.2191 42.3817)" fill="#5F1EB4"/>
<circle cx="42.6957" cy="42.3817" r="1.26158" transform="rotate(90 42.6957 42.3817)" fill="#5F1EB4"/>
<circle cx="42.6957" cy="49.951" r="1.26158" transform="rotate(90 42.6957 49.951)" fill="#5F1EB4"/>
<circle cx="57.7465" cy="49.7836" r="1.26158" transform="rotate(90 57.7465 49.7836)" fill="#5F1EB4"/>
<circle cx="60.2699" cy="47.2606" r="1.26158" transform="rotate(90 60.2699 47.2606)" fill="#5F1EB4"/>
<circle cx="62.7936" cy="47.2609" r="1.26158" transform="rotate(90 62.7936 47.2609)" fill="#5F1EB4"/>
<circle cx="62.7933" cy="44.8973" r="1.26158" transform="rotate(90 62.7933 44.8973)" fill="#5F1EB4"/>
<circle cx="20.0194" cy="44.7845" r="1.26158" fill="#5F1EB4"/>
<circle cx="20.0194" cy="47.3075" r="1.26158" fill="#5F1EB4"/>
<circle cx="22.5428" cy="47.3075" r="1.26158" fill="#5F1EB4"/>
<circle cx="30.1131" cy="47.3075" r="1.26158" fill="#5F1EB4"/>
<circle cx="30.1131" cy="49.8304" r="1.26158" fill="#5F1EB4"/>
<circle cx="32.6366" cy="49.8304" r="1.26158" fill="#5F1EB4"/>
<circle cx="32.6366" cy="52.3539" r="1.26158" fill="#5F1EB4"/>
<circle cx="35.1603" cy="52.3539" r="1.26158" fill="#5F1EB4"/>
<circle cx="27.5897" cy="49.8304" r="1.26158" fill="#5F1EB4"/>
<circle cx="25.0663" cy="49.8304" r="1.26158" fill="#5F1EB4"/>
<circle cx="27.758" cy="52.3539" r="1.26158" fill="#5F1EB4"/>
<circle cx="27.758" cy="54.8771" r="1.26158" fill="#5F1EB4"/>
<circle cx="32.6366" cy="57.3138" r="1.26158" fill="#5F1EB4"/>
<circle cx="35.1603" cy="57.3138" r="1.26158" fill="#5F1EB4"/>
<circle cx="37.6835" cy="57.3138" r="1.26158" fill="#5F1EB4"/>
<circle cx="40.2143" cy="57.3138" r="1.26158" fill="#5F1EB4"/>
<circle cx="40.2143" cy="54.8771" r="1.26158" fill="#5F1EB4"/>
<circle cx="40.2143" cy="52.3539" r="1.26158" fill="#5F1EB4"/>
<circle cx="40.2143" cy="49.8307" r="1.26158" fill="#5F1EB4"/>
<circle cx="40.2143" cy="47.3075" r="1.26158" fill="#5F1EB4"/>
<circle cx="37.6912" cy="44.7843" r="1.26158" fill="#5F1EB4"/>
<circle cx="32.6366" cy="44.7845" r="1.26158" fill="#5F1EB4"/>
<circle cx="35.1603" cy="42.2611" r="1.26158" fill="#5F1EB4"/>
<circle cx="35.1603" cy="47.3075" r="1.26158" fill="#5F1EB4"/>
<circle cx="25.2342" cy="54.8768" r="1.26158" fill="#5F1EB4"/>
<circle cx="25.2342" cy="57.3138" r="1.26158" fill="#5F1EB4"/>
<circle cx="22.7108" cy="59.8368" r="1.26158" fill="#5F1EB4"/>
<circle cx="25.2342" cy="59.8368" r="1.26158" fill="#5F1EB4"/>
<circle cx="20.1874" cy="59.8368" r="1.26158" fill="#5F1EB4"/>
<circle cx="27.758" cy="62.3602" r="1.26158" fill="#5F1EB4"/>
<circle cx="27.5897" cy="47.3075" r="1.26158" fill="#5F1EB4"/>
<circle cx="25.0663" cy="44.7845" r="1.26158" fill="#5F1EB4"/>
<circle cx="25.0663" cy="42.2611" r="1.26158" fill="#5F1EB4"/>
<circle cx="22.703" cy="42.2611" r="1.26158" fill="#5F1EB4"/>
</svg>
